<?xml version="1.0" encoding="UTF-8" standalone="no"?><!-- Generator: Gravit.io --><svg xmlns="http://www.w3.org/2000/svg" xmlns:xlink="http://www.w3.org/1999/xlink" style="isolation:isolate" viewBox="95.31 566.881 305.379 72.239" width="305.379pt" height="72.239pt"><defs><clipPath id="_clipPath_QeQ3og1YoJv6K6MWU9L5Y3E278F21yaF"><rect x="95.31" y="566.881" width="305.379" height="72.239"/></clipPath></defs><g clip-path="url(#_clipPath_QeQ3og1YoJv6K6MWU9L5Y3E278F21yaF)"><g><path d=" M 389.02 623.787 L 389.02 623.787 L 389.02 623.787 Q 389.02 620.614 386.407 618.953 L 386.407 618.953 L 386.407 618.953 Q 383.795 617.293 377.74 616.024 L 377.74 616.024 L 377.74 616.024 Q 371.686 614.754 367.633 612.801 L 367.633 612.801 L 367.633 612.801 Q 358.746 608.504 358.746 600.35 L 358.746 600.35 L 358.746 600.35 Q 358.746 593.514 364.508 588.924 L 364.508 588.924 L 364.508 588.924 Q 370.27 584.334 379.156 584.334 L 379.156 584.334 L 379.156 584.334 Q 388.629 584.334 394.464 589.022 L 394.464 589.022 L 394.464 589.022 Q 400.299 593.709 400.299 601.18 L 400.299 601.18 L 388.434 601.18 L 388.434 601.18 Q 388.434 597.762 385.895 595.492 L 385.895 595.492 L 385.895 595.492 Q 383.356 593.221 379.156 593.221 L 379.156 593.221 L 379.156 593.221 Q 375.25 593.221 372.784 595.028 L 372.784 595.028 L 372.784 595.028 Q 370.318 596.834 370.318 599.862 L 370.318 599.862 L 370.318 599.862 Q 370.318 602.596 372.613 604.11 L 372.613 604.11 L 372.613 604.11 Q 374.908 605.623 381.891 607.161 L 381.891 607.161 L 381.891 607.161 Q 388.873 608.7 392.853 610.824 L 392.853 610.824 L 392.853 610.824 Q 396.832 612.948 398.761 615.926 L 398.761 615.926 L 398.761 615.926 Q 400.69 618.905 400.69 623.153 L 400.69 623.153 L 400.69 623.153 Q 400.69 630.282 394.781 634.701 L 394.781 634.701 L 394.781 634.701 Q 388.873 639.119 379.303 639.119 L 379.303 639.119 L 379.303 639.119 Q 372.809 639.119 367.731 636.776 L 367.731 636.776 L 367.731 636.776 Q 362.652 634.432 359.82 630.33 L 359.82 630.33 L 359.82 630.33 Q 356.988 626.229 356.988 621.492 L 356.988 621.492 L 368.512 621.492 L 368.512 621.492 Q 368.756 625.692 371.686 627.962 L 371.686 627.962 L 371.686 627.962 Q 374.615 630.233 379.449 630.233 L 379.449 630.233 L 379.449 630.233 Q 384.137 630.233 386.578 628.451 L 386.578 628.451 L 386.578 628.451 Q 389.02 626.668 389.02 623.787 Z  M 354.794 585.018 L 354.745 596.151 L 354.745 596.151 Q 352.401 595.76 349.911 595.76 L 349.911 595.76 L 349.911 595.76 Q 341.757 595.76 338.925 602.01 L 338.925 602.01 L 338.925 638.143 L 327.059 638.143 L 327.059 585.311 L 338.387 585.311 L 338.68 591.219 L 338.68 591.219 Q 342.977 584.334 350.594 584.334 L 350.594 584.334 L 350.594 584.334 Q 353.134 584.334 354.794 585.018 L 354.794 585.018 Z  M 322.328 638.143 L 310.219 638.143 L 310.219 638.143 Q 309.438 636.629 308.852 633.211 L 308.852 633.211 L 308.852 633.211 Q 303.188 639.119 294.984 639.119 L 294.984 639.119 L 294.984 639.119 Q 287.025 639.119 281.996 634.578 L 281.996 634.578 L 281.996 634.578 Q 276.967 630.037 276.967 623.348 L 276.967 623.348 L 276.967 623.348 Q 276.967 614.901 283.241 610.384 L 283.241 610.384 L 283.241 610.384 Q 289.516 605.867 301.186 605.867 L 301.186 605.867 L 308.461 605.867 L 308.461 602.401 L 308.461 602.401 Q 308.461 598.299 306.166 595.833 L 306.166 595.833 L 306.166 595.833 Q 303.871 593.367 299.184 593.367 L 299.184 593.367 L 299.184 593.367 Q 295.131 593.367 292.543 595.394 L 292.543 595.394 L 292.543 595.394 Q 289.955 597.42 289.955 600.545 L 289.955 600.545 L 278.09 600.545 L 278.09 600.545 Q 278.09 596.2 280.971 592.415 L 280.971 592.415 L 280.971 592.415 Q 283.852 588.631 288.808 586.483 L 288.808 586.483 L 288.808 586.483 Q 293.764 584.334 299.867 584.334 L 299.867 584.334 L 299.867 584.334 Q 309.145 584.334 314.662 588.997 L 314.662 588.997 L 314.662 588.997 Q 320.18 593.66 320.326 602.108 L 320.326 602.108 L 320.326 625.936 L 320.326 625.936 Q 320.326 633.065 322.328 637.313 L 322.328 637.313 L 322.328 638.143 Z  M 297.182 629.598 L 297.182 629.598 L 297.182 629.598 Q 300.697 629.598 303.798 627.889 L 303.798 627.889 L 303.798 627.889 Q 306.899 626.18 308.461 623.299 L 308.461 623.299 L 308.461 613.338 L 302.065 613.338 L 302.065 613.338 Q 295.473 613.338 292.152 615.633 L 292.152 615.633 L 292.152 615.633 Q 288.832 617.928 288.832 622.127 L 288.832 622.127 L 288.832 622.127 Q 288.832 625.545 291.103 627.572 L 291.103 627.572 L 291.103 627.572 Q 293.373 629.598 297.182 629.598 Z  M 240.644 638.143 L 228.535 638.143 L 228.535 638.143 Q 227.753 636.629 227.167 633.211 L 227.167 633.211 L 227.167 633.211 Q 221.503 639.119 213.3 639.119 L 213.3 639.119 L 213.3 639.119 Q 205.341 639.119 200.312 634.578 L 200.312 634.578 L 200.312 634.578 Q 195.283 630.037 195.283 623.348 L 195.283 623.348 L 195.283 623.348 Q 195.283 614.901 201.557 610.384 L 201.557 610.384 L 201.557 610.384 Q 207.831 605.867 219.501 605.867 L 219.501 605.867 L 226.777 605.867 L 226.777 602.401 L 226.777 602.401 Q 226.777 598.299 224.482 595.833 L 224.482 595.833 L 224.482 595.833 Q 222.187 593.367 217.499 593.367 L 217.499 593.367 L 217.499 593.367 Q 213.447 593.367 210.859 595.394 L 210.859 595.394 L 210.859 595.394 Q 208.271 597.42 208.271 600.545 L 208.271 600.545 L 196.406 600.545 L 196.406 600.545 Q 196.406 596.2 199.287 592.415 L 199.287 592.415 L 199.287 592.415 Q 202.167 588.631 207.123 586.483 L 207.123 586.483 L 207.123 586.483 Q 212.08 584.334 218.183 584.334 L 218.183 584.334 L 218.183 584.334 Q 227.46 584.334 232.978 588.997 L 232.978 588.997 L 232.978 588.997 Q 238.496 593.66 238.642 602.108 L 238.642 602.108 L 238.642 625.936 L 238.642 625.936 Q 238.642 633.065 240.644 637.313 L 240.644 637.313 L 240.644 638.143 Z  M 215.498 629.598 L 215.498 629.598 L 215.498 629.598 Q 219.013 629.598 222.114 627.889 L 222.114 627.889 L 222.114 627.889 Q 225.214 626.18 226.777 623.299 L 226.777 623.299 L 226.777 613.338 L 220.38 613.338 L 220.38 613.338 Q 213.789 613.338 210.468 615.633 L 210.468 615.633 L 210.468 615.633 Q 207.148 617.928 207.148 622.127 L 207.148 622.127 L 207.148 622.127 Q 207.148 625.545 209.418 627.572 L 209.418 627.572 L 209.418 627.572 Q 211.689 629.598 215.498 629.598 Z  M 251.237 572.469 L 263.102 572.469 L 263.102 585.311 L 272.428 585.311 L 272.428 594.1 L 263.102 594.1 L 263.102 623.592 L 263.102 623.592 Q 263.102 626.619 264.299 627.962 L 264.299 627.962 L 264.299 627.962 Q 265.495 629.305 268.571 629.305 L 268.571 629.305 L 268.571 629.305 Q 270.622 629.305 272.721 628.817 L 272.721 628.817 L 272.721 637.996 L 272.721 637.996 Q 268.669 639.119 264.909 639.119 L 264.909 639.119 L 264.909 639.119 Q 251.237 639.119 251.237 624.032 L 251.237 624.032 L 251.237 594.1 L 242.546 594.1 L 242.546 585.311 L 251.237 585.311 L 251.237 572.469 Z  M 160.473 585.311 L 171.802 623.104 L 182.983 585.311 L 195.239 585.311 L 176.929 638.143 L 166.626 638.143 L 148.169 585.311 L 160.473 585.311 Z  M 147.264 638.143 L 141.453 621.59 L 113.914 621.59 L 108.152 638.143 L 95.31 638.143 L 122.166 567.049 L 133.25 567.049 L 160.154 638.143 L 147.264 638.143 Z  M 127.684 582.137 L 117.381 611.629 L 137.986 611.629 L 127.684 582.137 Z " fill-rule="evenodd" fill="rgb(53,59,72)"/><path d=" M 151.742 581.295 L 147.807 581.295 L 147.807 567.076 L 151.82 567.076 L 151.82 567.076 Q 153.676 567.076 155.102 567.896 L 155.102 567.896 L 155.102 567.896 Q 156.527 568.716 157.304 570.23 L 157.304 570.23 L 157.304 570.23 Q 158.08 571.744 158.09 573.707 L 158.09 573.707 L 158.09 574.615 L 158.09 574.615 Q 158.09 576.627 157.313 578.14 L 157.313 578.14 L 157.313 578.14 Q 156.537 579.654 155.097 580.465 L 155.097 580.465 L 155.097 580.465 Q 153.656 581.275 151.742 581.295 L 151.742 581.295 Z  M 151.869 568.619 L 149.682 568.619 L 149.682 579.761 L 151.654 579.761 L 151.654 579.761 Q 153.822 579.761 155.028 578.414 L 155.028 578.414 L 155.028 578.414 Q 156.234 577.066 156.234 574.576 L 156.234 574.576 L 156.234 573.746 L 156.234 573.746 Q 156.234 571.324 155.097 569.981 L 155.097 569.981 L 155.097 569.981 Q 153.959 568.638 151.869 568.619 L 151.869 568.619 Z  M 162.602 570.728 L 162.602 581.295 L 160.795 581.295 L 160.795 570.728 L 162.602 570.728 Z  M 160.648 567.925 L 160.648 567.925 L 160.648 567.925 Q 160.648 567.486 160.917 567.183 L 160.917 567.183 L 160.917 567.183 Q 161.186 566.881 161.713 566.881 L 161.713 566.881 L 161.713 566.881 Q 162.24 566.881 162.514 567.183 L 162.514 567.183 L 162.514 567.183 Q 162.787 567.486 162.787 567.925 L 162.787 567.925 L 162.787 567.925 Q 162.787 568.365 162.514 568.658 L 162.514 568.658 L 162.514 568.658 Q 162.24 568.951 161.713 568.951 L 161.713 568.951 L 161.713 568.951 Q 161.186 568.951 160.917 568.658 L 160.917 568.658 L 160.917 568.658 Q 160.648 568.365 160.648 567.925 Z  M 169.73 580.015 L 169.73 580.015 L 169.73 580.015 Q 170.697 580.015 171.42 579.429 L 171.42 579.429 L 171.42 579.429 Q 172.143 578.843 172.221 577.965 L 172.221 577.965 L 173.93 577.965 L 173.93 577.965 Q 173.881 578.873 173.305 579.693 L 173.305 579.693 L 173.305 579.693 Q 172.728 580.513 171.767 581.002 L 171.767 581.002 L 171.767 581.002 Q 170.805 581.49 169.73 581.49 L 169.73 581.49 L 169.73 581.49 Q 167.572 581.49 166.298 580.049 L 166.298 580.049 L 166.298 580.049 Q 165.023 578.609 165.023 576.109 L 165.023 576.109 L 165.023 575.806 L 165.023 575.806 Q 165.023 574.263 165.59 573.062 L 165.59 573.062 L 165.59 573.062 Q 166.156 571.861 167.216 571.197 L 167.216 571.197 L 167.216 571.197 Q 168.275 570.533 169.721 570.533 L 169.721 570.533 L 169.721 570.533 Q 171.498 570.533 172.675 571.597 L 172.675 571.597 L 172.675 571.597 Q 173.852 572.662 173.93 574.361 L 173.93 574.361 L 172.221 574.361 L 172.221 574.361 Q 172.143 573.336 171.444 572.676 L 171.444 572.676 L 171.444 572.676 Q 170.746 572.017 169.721 572.017 L 169.721 572.017 L 169.721 572.017 Q 168.344 572.017 167.587 573.008 L 167.587 573.008 L 167.587 573.008 Q 166.83 574 166.83 575.875 L 166.83 575.875 L 166.83 576.216 L 166.83 576.216 Q 166.83 578.043 167.582 579.029 L 167.582 579.029 L 167.582 579.029 Q 168.334 580.015 169.73 580.015 Z  M 180.346 581.49 L 180.346 581.49 L 180.346 581.49 Q 178.197 581.49 176.85 580.079 L 176.85 580.079 L 176.85 580.079 Q 175.502 578.668 175.502 576.304 L 175.502 576.304 L 175.502 575.972 L 175.502 575.972 Q 175.502 574.4 176.103 573.165 L 176.103 573.165 L 176.103 573.165 Q 176.703 571.929 177.782 571.231 L 177.782 571.231 L 177.782 571.231 Q 178.861 570.533 180.121 570.533 L 180.121 570.533 L 180.121 570.533 Q 182.182 570.533 183.324 571.89 L 183.324 571.89 L 183.324 571.89 Q 184.467 573.248 184.467 575.777 L 184.467 575.777 L 184.467 576.529 L 177.309 576.529 L 177.309 576.529 Q 177.348 578.091 178.222 579.053 L 178.222 579.053 L 178.222 579.053 Q 179.096 580.015 180.443 580.015 L 180.443 580.015 L 180.443 580.015 Q 181.4 580.015 182.064 579.625 L 182.064 579.625 L 182.064 579.625 Q 182.728 579.234 183.227 578.59 L 183.227 578.59 L 184.33 579.449 L 184.33 579.449 Q 183.002 581.49 180.346 581.49 Z  M 180.121 572.017 L 180.121 572.017 L 180.121 572.017 Q 179.027 572.017 178.285 572.813 L 178.285 572.813 L 178.285 572.813 Q 177.543 573.609 177.367 575.045 L 177.367 575.045 L 182.66 575.045 L 182.66 574.908 L 182.66 574.908 Q 182.582 573.531 181.918 572.774 L 181.918 572.774 L 181.918 572.774 Q 181.254 572.017 180.121 572.017 Z  M 191.771 581.295 L 186.84 581.295 L 186.84 567.076 L 191.488 567.076 L 191.488 567.076 Q 193.803 567.076 194.97 568.033 L 194.97 568.033 L 194.97 568.033 Q 196.137 568.99 196.137 570.865 L 196.137 570.865 L 196.137 570.865 Q 196.137 571.861 195.57 572.628 L 195.57 572.628 L 195.57 572.628 Q 195.004 573.394 194.027 573.814 L 194.027 573.814 L 194.027 573.814 Q 195.18 574.136 195.849 575.04 L 195.849 575.04 L 195.849 575.04 Q 196.518 575.943 196.518 577.193 L 196.518 577.193 L 196.518 577.193 Q 196.518 579.107 195.277 580.201 L 195.277 580.201 L 195.277 580.201 Q 194.037 581.295 191.771 581.295 L 191.771 581.295 Z  M 191.84 574.644 L 188.715 574.644 L 188.715 579.761 L 191.811 579.761 L 191.811 579.761 Q 193.119 579.761 193.876 579.083 L 193.876 579.083 L 193.876 579.083 Q 194.633 578.404 194.633 577.213 L 194.633 577.213 L 194.633 577.213 Q 194.633 574.644 191.84 574.644 L 191.84 574.644 Z  M 188.715 568.619 L 188.715 573.14 L 191.547 573.14 L 191.547 573.14 Q 192.777 573.14 193.515 572.525 L 193.515 572.525 L 193.515 572.525 Q 194.252 571.91 194.252 570.855 L 194.252 570.855 L 194.252 570.855 Q 194.252 569.683 193.568 569.151 L 193.568 569.151 L 193.568 569.151 Q 192.885 568.619 191.488 568.619 L 191.488 568.619 L 188.715 568.619 Z  M 203.393 581.49 L 203.393 581.49 L 203.393 581.49 Q 201.244 581.49 199.896 580.079 L 199.896 580.079 L 199.896 580.079 Q 198.549 578.668 198.549 576.304 L 198.549 576.304 L 198.549 575.972 L 198.549 575.972 Q 198.549 574.4 199.149 573.165 L 199.149 573.165 L 199.149 573.165 Q 199.75 571.929 200.829 571.231 L 200.829 571.231 L 200.829 571.231 Q 201.908 570.533 203.168 570.533 L 203.168 570.533 L 203.168 570.533 Q 205.228 570.533 206.371 571.89 L 206.371 571.89 L 206.371 571.89 Q 207.514 573.248 207.514 575.777 L 207.514 575.777 L 207.514 576.529 L 200.355 576.529 L 200.355 576.529 Q 200.395 578.091 201.269 579.053 L 201.269 579.053 L 201.269 579.053 Q 202.143 580.015 203.49 580.015 L 203.49 580.015 L 203.49 580.015 Q 204.447 580.015 205.111 579.625 L 205.111 579.625 L 205.111 579.625 Q 205.775 579.234 206.273 578.59 L 206.273 578.59 L 207.377 579.449 L 207.377 579.449 Q 206.049 581.49 203.393 581.49 Z  M 203.168 572.017 L 203.168 572.017 L 203.168 572.017 Q 202.074 572.017 201.332 572.813 L 201.332 572.813 L 201.332 572.813 Q 200.59 573.609 200.414 575.045 L 200.414 575.045 L 205.707 575.045 L 205.707 574.908 L 205.707 574.908 Q 205.629 573.531 204.965 572.774 L 204.965 572.774 L 204.965 572.774 Q 204.301 572.017 203.168 572.017 Z  M 218.021 581.295 L 216.127 581.295 L 216.127 581.295 Q 215.971 580.982 215.873 580.181 L 215.873 580.181 L 215.873 580.181 Q 214.613 581.49 212.865 581.49 L 212.865 581.49 L 212.865 581.49 Q 211.303 581.49 210.302 580.606 L 210.302 580.606 L 210.302 580.606 Q 209.301 579.722 209.301 578.365 L 209.301 578.365 L 209.301 578.365 Q 209.301 576.715 210.556 575.801 L 210.556 575.801 L 210.556 575.801 Q 211.811 574.888 214.086 574.888 L 214.086 574.888 L 215.844 574.888 L 215.844 574.058 L 215.844 574.058 Q 215.844 573.111 215.277 572.549 L 215.277 572.549 L 215.277 572.549 Q 214.711 571.988 213.607 571.988 L 213.607 571.988 L 213.607 571.988 Q 212.641 571.988 211.986 572.476 L 211.986 572.476 L 211.986 572.476 Q 211.332 572.965 211.332 573.658 L 211.332 573.658 L 209.516 573.658 L 209.516 573.658 Q 209.516 572.867 210.077 572.13 L 210.077 572.13 L 210.077 572.13 Q 210.639 571.392 211.601 570.963 L 211.601 570.963 L 211.601 570.963 Q 212.562 570.533 213.715 570.533 L 213.715 570.533 L 213.715 570.533 Q 215.541 570.533 216.576 571.446 L 216.576 571.446 L 216.576 571.446 Q 217.611 572.359 217.65 573.961 L 217.65 573.961 L 217.65 578.824 L 217.65 578.824 Q 217.65 580.279 218.021 581.138 L 218.021 581.138 L 218.021 581.295 Z  M 213.129 579.918 L 213.129 579.918 L 213.129 579.918 Q 213.978 579.918 214.74 579.478 L 214.74 579.478 L 214.74 579.478 Q 215.502 579.039 215.844 578.336 L 215.844 578.336 L 215.844 576.168 L 214.428 576.168 L 214.428 576.168 Q 211.107 576.168 211.107 578.111 L 211.107 578.111 L 211.107 578.111 Q 211.107 578.961 211.674 579.439 L 211.674 579.439 L 211.674 579.439 Q 212.24 579.918 213.129 579.918 Z  M 225.59 570.67 L 225.59 572.349 L 225.59 572.349 Q 225.18 572.281 224.701 572.281 L 224.701 572.281 L 224.701 572.281 Q 222.924 572.281 222.289 573.795 L 222.289 573.795 L 222.289 581.295 L 220.482 581.295 L 220.482 570.728 L 222.24 570.728 L 222.27 571.949 L 222.27 571.949 Q 223.158 570.533 224.789 570.533 L 224.789 570.533 L 224.789 570.533 Q 225.316 570.533 225.59 570.67 L 225.59 570.67 Z " fill-rule="evenodd" fill="rgb(127,143,166)"/></g></g></svg>